<?xml version="1.0" encoding="UTF-8"?>
<svg width="96px" height="73px" viewBox="0 0 96 73" version="1.1" xmlns="http://www.w3.org/2000/svg" xmlns:xlink="http://www.w3.org/1999/xlink">
    <!-- Generator: Sketch 52.4 (67378) - http://www.bohemiancoding.com/sketch -->
    <title>Group 3</title>
    <desc>Created with Sketch.</desc>
    <defs>
        <text id="text-1" font-family="HelveticaNeue-Medium, Helvetica Neue" font-size="16.83" font-weight="400" letter-spacing="1.05187501" fill="#F5824A">
            <tspan x="25.4674" y="58">MJ</tspan>
            <tspan x="51.57073" y="58">M</tspan>
        </text>
        <filter x="-4.8%" y="-5.0%" width="109.5%" height="120.0%" filterUnits="objectBoundingBox" id="filter-2">
            <feOffset dx="0" dy="1" in="SourceAlpha" result="shadowOffsetOuter1"></feOffset>
            <feGaussianBlur stdDeviation="0.5" in="shadowOffsetOuter1" result="shadowBlurOuter1"></feGaussianBlur>
            <feColorMatrix values="0 0 0 0 0   0 0 0 0 0   0 0 0 0 0  0 0 0 0.5 0" type="matrix" in="shadowBlurOuter1"></feColorMatrix>
        </filter>
        <filter x="-5.4%" y="-11.5%" width="110.9%" height="123.1%" filterUnits="objectBoundingBox" id="filter-3">
            <feOffset dx="0" dy="1" in="SourceAlpha" result="shadowOffsetOuter1"></feOffset>
            <feGaussianBlur stdDeviation="0.5" in="shadowOffsetOuter1" result="shadowBlurOuter1"></feGaussianBlur>
            <feColorMatrix values="0 0 0 0 0   0 0 0 0 0   0 0 0 0 0  0 0 0 0.5 0" type="matrix" in="shadowBlurOuter1" result="shadowMatrixOuter1"></feColorMatrix>
            <feMerge>
                <feMergeNode in="shadowMatrixOuter1"></feMergeNode>
                <feMergeNode in="SourceGraphic"></feMergeNode>
            </feMerge>
        </filter>
        <linearGradient x1="50%" y1="0%" x2="50%" y2="100%" id="linearGradient-4">
            <stop stop-color="#FFAF04" offset="0%"></stop>
            <stop stop-color="#F5824A" offset="100%"></stop>
        </linearGradient>
    </defs>
    <g id="Page-1" stroke="none" stroke-width="1" fill="none" fill-rule="evenodd">
        <g id="Letterhead" transform="translate(-33.000000, -35.000000)">
            <g id="Group-3" transform="translate(35.000000, 37.000000)">
                <g id="MJM-Copy" fill="#F5824A" fill-opacity="1">
                    <use filter="url(#filter-2)" xlink:href="#text-1"></use>
                    <use xlink:href="#text-1"></use>
                </g>
                <text id="Training" font-family="HelveticaNeue-Thin, Helvetica Neue" font-size="8.6625" font-weight="300" letter-spacing="3.24843735" fill="#F5824A">
                    <tspan x="22.6140256" y="69">Training</tspan>
                </text>
                <g id="Group-8-Copy" filter="url(#filter-3)" stroke-linecap="square" stroke-width="2.77972973">
                    <g id="Group-2">
                        <g id="Group" stroke="url(#linearGradient-4)">
                            <path d="M45.3783784,22.6507281 L87.3033033,0.451290505 L87.3033033,0.230267748 L87.3033033,0.451290505 L87.550979,0.320145105 L87.3033033,0.451290505 L87.3033033,7.28542873 L0.414414414,49.6533604 L0.414414414,5.08395038 L0.166738725,4.95302799 L0.414414414,5.08395038 L0.414414414,4.30158907 L0.414414414,5.08395038 L3.86786787,6.9094601 L3.86786787,0.670724814 L3.20577776,0.320145105 L3.86786787,0.670724814 L3.86786787,0.230267748 L3.86786787,0.670724814 L45.3783784,22.6507281 L44.6733874,23.024024 L45.3783784,22.6507281 L46.0833694,23.024024 L45.3783784,22.6507281 L87.3033033,0.451290505 L87.3033033,7.28542873 L91.5855856,5.19734307 L91.5855856,4.30158907 L91.5855856,5.19734307 L91.6951231,5.14393141 L91.5855856,5.19734307 L91.5855856,6.12098896 L87.3033033,8.20907462 L87.3033033,44.3633634 L87.3033033,8.20907462 L0.414414414,50.5770062 L0.414414414,49.6533604 L87.3033033,7.28542873 L87.3033033,8.20907462 L91.5855856,6.12098896 L91.5855856,51.4653713 L61.0570571,35.3278653 L91.5855856,51.4653713 L91.5855856,51.4727602 L91.5855856,51.4653713 L91.6951231,51.5232733 L91.5855856,51.4653713 L91.5855856,6.12098896 L91.8618619,5.98627375 L91.5855856,6.12098896 L91.5855856,5.19734307 L87.3033033,7.28542873 L87.3033033,8.20907462 L0.414414414,50.5770062 L0.414414414,49.6533604 L0.138138138,49.7880756 L0.414414414,49.6533604 L0.414414414,5.08395038 L3.86786787,6.9094601 L3.86786787,44.3633634 L3.86786787,6.9094601 L30.8048048,21.1484359 L3.86786787,6.9094601 L3.86786787,0.670724814 L45.3783784,22.6507281 Z M0.414414414,50.5770062 L0.414414414,51.4727602 L0.414414414,50.5770062 L0.304876863,50.6304179 L0.414414414,50.5770062 Z" id="Combined-Shape"></path>
                        </g>
                        <path d="M45.3783784,22.6507281 L44.6733874,23.024024 L45.3783784,22.6507281 L46.0833694,23.024024 L45.3783784,22.6507281 L87.3033033,0.451290505 L87.3033033,44.3633634 L87.3033033,0.451290505 L87.550979,0.320145105 L87.3033033,0.451290505 L87.3033033,0.230267748 L87.3033033,0.451290505 L45.3783784,22.6507281 L3.86786787,0.670724814 L3.86786787,44.3633634 L3.86786787,0.670724814 L45.3783784,22.6507281 Z M3.86786787,0.670724814 L3.86786787,0.230267748 L3.86786787,0.670724814 L3.20577776,0.320145105 L3.86786787,0.670724814 Z" id="Combined-Shape" stroke="#F5824A"></path>
                    </g>
                </g>
            </g>
        </g>
    </g>
</svg>