<?xml version="1.0" encoding="UTF-8"?>
<svg width="1597px" height="792px" viewBox="0 0 1597 792" version="1.1" xmlns="http://www.w3.org/2000/svg" xmlns:xlink="http://www.w3.org/1999/xlink">
    <!-- Generator: Sketch 52.4 (67378) - http://www.bohemiancoding.com/sketch -->
    <title>ComingSoon</title>
    <desc>Created with Sketch.</desc>
    <defs>
        <text id="text-1" font-family="HelveticaNeue-Medium, Helvetica Neue" font-size="84.15" font-weight="400" letter-spacing="5.25937498" fill="#F5824A">
            <tspan x="127.337" y="292">MJ</tspan>
            <tspan x="257.85365" y="292">M</tspan>
        </text>
        <filter x="-4.9%" y="-5.0%" width="109.7%" height="120.0%" filterUnits="objectBoundingBox" id="filter-2">
            <feOffset dx="0" dy="5" in="SourceAlpha" result="shadowOffsetOuter1"></feOffset>
            <feGaussianBlur stdDeviation="2.5" in="shadowOffsetOuter1" result="shadowBlurOuter1"></feGaussianBlur>
            <feColorMatrix values="0 0 0 0 0   0 0 0 0 0   0 0 0 0 0  0 0 0 0.5 0" type="matrix" in="shadowBlurOuter1"></feColorMatrix>
        </filter>
        <filter x="-5.4%" y="-11.5%" width="110.9%" height="122.7%" filterUnits="objectBoundingBox" id="filter-3">
            <feOffset dx="0" dy="5" in="SourceAlpha" result="shadowOffsetOuter1"></feOffset>
            <feGaussianBlur stdDeviation="2.5" in="shadowOffsetOuter1" result="shadowBlurOuter1"></feGaussianBlur>
            <feColorMatrix values="0 0 0 0 0   0 0 0 0 0   0 0 0 0 0  0 0 0 0.5 0" type="matrix" in="shadowBlurOuter1" result="shadowMatrixOuter1"></feColorMatrix>
            <feMerge>
                <feMergeNode in="shadowMatrixOuter1"></feMergeNode>
                <feMergeNode in="SourceGraphic"></feMergeNode>
            </feMerge>
        </filter>
        <linearGradient x1="50%" y1="0%" x2="50%" y2="100%" id="linearGradient-4">
            <stop stop-color="#FFAF04" offset="0%"></stop>
            <stop stop-color="#F5824A" offset="100%"></stop>
        </linearGradient>
    </defs>
    <g id="ComingSoon" stroke="none" stroke-width="1" fill="none" fill-rule="evenodd">
        <rect fill="#FFFFFF" x="0" y="0" width="1597" height="792"></rect>
        <g id="Group-4" transform="translate(56.000000, 123.000000)">
            <g id="Group-3-Copy" transform="translate(513.000000, 0.000000)">
                <g id="Group-3">
                    <g id="MJM-Copy" fill="#F5824A" fill-opacity="1">
                        <use filter="url(#filter-2)" xlink:href="#text-1"></use>
                        <use xlink:href="#text-1"></use>
                    </g>
                    <text id="Training" font-family="HelveticaNeue-Light, Helvetica Neue" font-size="43.3125" font-weight="300" letter-spacing="10" fill="#F5824A">
                        <tspan x="123.077687" y="352">Trainin</tspan>
                        <tspan x="311.840563" y="352">g</tspan>
                    </text>
                    <g id="Group-8-Copy" filter="url(#filter-3)" stroke-linecap="square" stroke-width="13.8986486">
                        <g id="Group-2">
                            <g id="Group" stroke="url(#linearGradient-4)">
                                <path d="M226.891892,113.253641 L436.516517,2.25645252 L436.516517,1.15133874 L436.516517,2.25645252 L226.891892,113.253641 L19.3393393,3.35362407 L19.3393393,1.15133874 L19.3393393,3.35362407 L16.0288888,1.60072553 L19.3393393,3.35362407 L19.3393393,34.5473005 L2.07207207,25.4197519 L2.07207207,21.5079453 L2.07207207,25.4197519 L0.833693625,24.7651399 L2.07207207,25.4197519 L2.07207207,248.266802 L436.516517,36.4271436 L436.516517,2.25645252 L437.754895,1.60072553 L436.516517,2.25645252 L436.516517,36.4271436 L457.927928,25.9867153 L457.927928,30.6049448 L436.516517,41.0453731 L436.516517,36.4271436 L2.07207207,248.266802 L2.07207207,252.885031 L436.516517,41.0453731 L436.516517,36.4271436 L457.927928,25.9867153 L457.927928,21.5079453 L457.927928,25.9867153 L458.475616,25.7196571 L457.927928,25.9867153 L457.927928,30.6049448 L459.309309,29.9313688 L457.927928,30.6049448 L457.927928,257.326856 L305.285285,176.639327 L457.927928,257.326856 L457.927928,257.363801 L457.927928,257.326856 L458.475616,257.616366 L457.927928,257.326856 L457.927928,30.6049448 L436.516517,41.0453731 L436.516517,221.816817 L436.516517,41.0453731 L2.07207207,252.885031 L2.07207207,248.266802 L0.690690691,248.940378 L2.07207207,248.266802 L2.07207207,25.4197519 L19.3393393,34.5473005 L19.3393393,221.816817 L19.3393393,34.5473005 L154.024024,105.74218 L19.3393393,34.5473005 L19.3393393,3.35362407 L226.891892,113.253641 Z M226.891892,113.253641 L230.416847,115.12012 L226.891892,113.253641 L223.366937,115.12012 L226.891892,113.253641 Z M2.07207207,252.885031 L2.07207207,257.363801 L2.07207207,252.885031 L1.52438432,253.152089 L2.07207207,252.885031 Z" id="Combined-Shape"></path>
                            </g>
                            <path d="M226.891892,113.253641 L19.3393393,3.35362407 L19.3393393,221.816817 L19.3393393,3.35362407 L226.891892,113.253641 L436.516517,2.25645252 L436.516517,1.15133874 L436.516517,2.25645252 L437.754895,1.60072553 L436.516517,2.25645252 L436.516517,221.816817 L436.516517,2.25645252 L226.891892,113.253641 L230.416847,115.12012 L226.891892,113.253641 L223.366937,115.12012 L226.891892,113.253641 Z M19.3393393,3.35362407 L16.0288888,1.60072553 L19.3393393,3.35362407 L19.3393393,1.15133874 L19.3393393,3.35362407 Z" id="Combined-Shape" stroke="#F5824A"></path>
                        </g>
                    </g>
                </g>
            </g>
            <text id="Website-Coming-Soon" font-family="HelveticaNeue-UltraLight, Helvetica Neue" font-size="144" font-weight="200" letter-spacing="10" fill="#F5824A">
                <tspan x="0.252" y="515">Website Coming Soo</tspan>
                <tspan x="1412.748" y="515">n</tspan>
            </text>
        </g>
    </g>
</svg>
